<svg width="37" height="36" viewBox="0 0 37 36" fill="none" xmlns="http://www.w3.org/2000/svg">
<rect x="0.5" width="36" height="36" rx="18" fill="#1B5E37"/>
<g clip-path="url(#clip0_24_1920)">
<path d="M25.5 17H19.5V11C19.5 10.4477 19.0523 10 18.5 10C17.9477 10 17.5 10.4477 17.5 11V17H11.5C10.9477 17 10.5 17.4477 10.5 18C10.5 18.5523 10.9477 19 11.5 19H17.5V25C17.5 25.5523 17.9477 26 18.5 26C19.0523 26 19.5 25.5523 19.5 25V19H25.5C26.0523 19 26.5 18.5523 26.5 18C26.5 17.4477 26.0523 17 25.5 17Z" fill="white"/>
</g>
<defs>
<clipPath id="clip0_24_1920">
<rect width="16" height="16" fill="white" transform="translate(10.5 10)"/>
</clipPath>
</defs>
</svg>
