<svg width="21" height="20" viewBox="0 0 21 20" fill="none" xmlns="http://www.w3.org/2000/svg">
<path d="M13.2037 17.2253C13.37 17.2253 13.5362 17.1669 13.6675 17.0419C13.9212 16.8003 13.9212 16.4003 13.6675 16.1586L7.96248 10.7253C7.54248 10.3253 7.54248 9.67526 7.96248 9.27526L13.6675 3.84193C13.9212 3.60026 13.9212 3.20026 13.6675 2.95859C13.4137 2.71693 12.9937 2.71693 12.74 2.95859L7.03498 8.39193C6.58873 8.81693 6.33498 9.39193 6.33498 10.0003C6.33498 10.6086 6.57998 11.1836 7.03498 11.6086L12.74 17.0419C12.8712 17.1586 13.0375 17.2253 13.2037 17.2253Z" fill="#0C0D0D"/>
</svg>
